<!--?xml version="1.0" encoding="utf-8"?-->
<!-- Generator: Adobe Illustrator 15.1.0, SVG Export Plug-In . SVG Version: 6.00 Build 0)  -->

<svg version="1.1" id="_x32_" xmlns="http://www.w3.org/2000/svg" xmlns:xlink="http://www.w3.org/1999/xlink" x="0px" y="0px" width="512px" height="512px" viewBox="0 0 512 512" style="width: 256px; height: 256px; opacity: 1;" xml:space="preserve">
<style type="text/css">

	.st0{fill:#4B4B4B;}

</style>
<g>
	<path class="st0" d="M479.25,309.906c-4.516-10.516-10.406-19-16.781-26.469c-3.172-3.719-6.453-7.156-9.781-10.563
		c0.859-3.938,0-8.156-2.859-11.344l0.063-0.031c-0.078-0.125-0.453-1.172-0.688-3.031c-0.234-1.844-0.375-4.438-0.375-7.531
		c-0.016-7.781,0.797-18.625,0.797-31.094c0-15.75-1.297-34.281-7.656-53.656c-6.328-19.375-17.828-39.469-37.313-57.781
		c-23.078-21.719-50.047-33.656-76.141-40.063c-0.844-0.203-1.672-0.359-2.484-0.563c4.703-6.938,7.453-15.313,7.453-24.344
		C333.484,19.469,314.047,0,290.031,0C276.172,0,263.953,6.625,256,16.75C248.063,6.625,235.828,0,221.953,0
		c-24,0.016-43.438,19.438-43.453,43.438c0,9.031,2.766,17.406,7.469,24.344c-0.828,0.203-1.641,0.359-2.484,0.563
		c-26.094,6.406-53.094,18.344-76.141,40.063c-19.5,18.313-30.984,38.422-37.328,57.781c-6.344,19.375-7.641,37.906-7.641,53.656
		c0,12.469,0.797,23.281,0.797,31.063c0,4.063-0.25,7.25-0.641,9.031c-0.156,0.891-0.359,1.406-0.422,1.531l-0.016,0.031
		l0.047,0.031c-2.844,3.188-3.703,7.375-2.844,11.344c-1.094,1.094-2.172,2.219-3.25,3.344
		c-8.813,9.297-17.281,19.641-23.297,33.688c-6.031,14.063-9.5,31.484-9.484,54.844c-0.016,23.969,6.094,45.625,17.547,64.219
		c17.188,27.906,45.953,48.656,82.672,62.391C160.266,505.109,205.234,512,256,512c67.688-0.031,125.078-12.203,166.438-36.719
		c20.656-12.266,37.313-27.719,48.75-46.313c11.453-18.594,17.563-40.25,17.547-64.219
		C488.75,341.391,485.281,323.969,479.25,309.906z M290.031,26.063c9.594,0.031,17.359,7.813,17.375,17.375
		c-0.016,9.625-7.766,17.375-17.375,17.406c-9.578-0.031-17.359-7.813-17.375-17.406C272.672,33.875,280.453,26.094,290.031,26.063z
		 M221.953,26.063c9.594,0.031,17.359,7.813,17.375,17.375c-0.016,9.625-7.766,17.375-17.375,17.406
		c-9.578-0.031-17.359-7.813-17.375-17.406C204.594,33.875,212.375,26.094,221.953,26.063z M423.063,239.844
		c-6.563-9.188-12.828-20.125-18.375-34.531c-12.219-31.875-30.078-54.375-54.906-68.094c-24.797-13.75-55.578-18.781-93.781-18.781
		s-68.969,5.031-93.781,18.781c-24.828,13.719-42.688,36.219-54.906,68.094c-5.563,14.375-11.813,25.375-18.375,34.594
		c-0.25-6.344-0.516-12.938-0.5-20.063c0-14.281,1.219-29.875,6.359-45.531c5.172-15.672,14.109-31.516,30.422-46.906
		c19.094-18,41.531-28.078,64.516-33.75c22.953-5.656,46.281-6.75,66.266-6.75c20,0,43.313,1.094,66.266,6.75
		c22.984,5.672,45.406,15.75,64.516,33.75c16.313,15.391,25.234,31.234,30.422,46.906c5.141,15.656,6.359,31.234,6.359,45.531
		C423.578,226.938,423.313,233.531,423.063,239.844z" style="fill: rgb(75, 75, 75);"></path>
</g>
</svg>
